<mxfile host="app.diagrams.net" agent="Mozilla/5.0 (X11; Linux x86_64; rv:132.0) Gecko/20100101 Firefox/132.0" version="24.9.1">
  <diagram name="Page-1" id="T8_Pfgg00Lvm1iwahL-D">
    <mxGraphModel dx="1434" dy="761" grid="1" gridSize="10" guides="1" tooltips="1" connect="1" arrows="1" fold="1" page="1" pageScale="1" pageWidth="850" pageHeight="1100" background="none" math="0" shadow="0">
      <root>
        <mxCell id="0" />
        <mxCell id="1" parent="0" />
        <mxCell id="qssM28EAout3t3XQj-o4-2" value="" style="ellipse;whiteSpace=wrap;html=1;aspect=fixed;labelBackgroundColor=none;rounded=0;fillStyle=solid;gradientColor=none;fillColor=default;opacity=10;" parent="1" vertex="1">
          <mxGeometry x="90" y="200" width="30" height="30" as="geometry" />
        </mxCell>
        <mxCell id="qssM28EAout3t3XQj-o4-3" value="" style="ellipse;whiteSpace=wrap;html=1;aspect=fixed;labelBackgroundColor=none;rounded=0;fillStyle=solid;gradientColor=none;fillColor=default;opacity=10;" parent="1" vertex="1">
          <mxGeometry x="130" y="200" width="30" height="30" as="geometry" />
        </mxCell>
        <mxCell id="qssM28EAout3t3XQj-o4-4" value="" style="ellipse;whiteSpace=wrap;html=1;aspect=fixed;labelBackgroundColor=none;rounded=0;fillStyle=solid;gradientColor=none;fillColor=default;opacity=10;" parent="1" vertex="1">
          <mxGeometry x="90" y="240" width="30" height="30" as="geometry" />
        </mxCell>
        <mxCell id="qssM28EAout3t3XQj-o4-5" value="" style="ellipse;whiteSpace=wrap;html=1;aspect=fixed;labelBackgroundColor=none;rounded=0;" parent="1" vertex="1">
          <mxGeometry x="130" y="240" width="30" height="30" as="geometry" />
        </mxCell>
        <mxCell id="qssM28EAout3t3XQj-o4-6" value="" style="ellipse;whiteSpace=wrap;html=1;aspect=fixed;labelBackgroundColor=none;rounded=0;fillStyle=solid;gradientColor=none;fillColor=default;opacity=10;" parent="1" vertex="1">
          <mxGeometry x="170" y="200" width="30" height="30" as="geometry" />
        </mxCell>
        <mxCell id="qssM28EAout3t3XQj-o4-7" value="" style="ellipse;whiteSpace=wrap;html=1;aspect=fixed;labelBackgroundColor=none;rounded=0;fillStyle=solid;gradientColor=none;fillColor=default;opacity=10;" parent="1" vertex="1">
          <mxGeometry x="210" y="200" width="30" height="30" as="geometry" />
        </mxCell>
        <mxCell id="qssM28EAout3t3XQj-o4-8" value="" style="ellipse;whiteSpace=wrap;html=1;aspect=fixed;labelBackgroundColor=none;rounded=0;" parent="1" vertex="1">
          <mxGeometry x="170" y="240" width="30" height="30" as="geometry" />
        </mxCell>
        <mxCell id="qssM28EAout3t3XQj-o4-9" value="" style="ellipse;whiteSpace=wrap;html=1;aspect=fixed;labelBackgroundColor=none;rounded=0;" parent="1" vertex="1">
          <mxGeometry x="210" y="240" width="30" height="30" as="geometry" />
        </mxCell>
        <mxCell id="qssM28EAout3t3XQj-o4-14" value="" style="ellipse;whiteSpace=wrap;html=1;aspect=fixed;labelBackgroundColor=none;rounded=0;fillStyle=solid;gradientColor=none;fillColor=default;opacity=10;" parent="1" vertex="1">
          <mxGeometry x="90" y="280" width="30" height="30" as="geometry" />
        </mxCell>
        <mxCell id="qssM28EAout3t3XQj-o4-15" value="" style="ellipse;whiteSpace=wrap;html=1;aspect=fixed;labelBackgroundColor=none;rounded=0;" parent="1" vertex="1">
          <mxGeometry x="130" y="280" width="30" height="30" as="geometry" />
        </mxCell>
        <mxCell id="qssM28EAout3t3XQj-o4-16" value="" style="ellipse;whiteSpace=wrap;html=1;aspect=fixed;labelBackgroundColor=none;rounded=0;fillStyle=solid;gradientColor=none;fillColor=default;opacity=10;" parent="1" vertex="1">
          <mxGeometry x="90" y="320" width="30" height="30" as="geometry" />
        </mxCell>
        <mxCell id="qssM28EAout3t3XQj-o4-17" value="" style="ellipse;whiteSpace=wrap;html=1;aspect=fixed;labelBackgroundColor=none;rounded=0;" parent="1" vertex="1">
          <mxGeometry x="130" y="320" width="30" height="30" as="geometry" />
        </mxCell>
        <mxCell id="qssM28EAout3t3XQj-o4-18" value="F" style="ellipse;whiteSpace=wrap;html=1;aspect=fixed;labelBackgroundColor=none;rounded=0;fillColor=#ffe6cc;strokeColor=#d79b00;" parent="1" vertex="1">
          <mxGeometry x="170" y="280" width="30" height="30" as="geometry" />
        </mxCell>
        <mxCell id="qssM28EAout3t3XQj-o4-19" value="F" style="ellipse;whiteSpace=wrap;html=1;aspect=fixed;labelBackgroundColor=none;rounded=0;fillColor=#ffe6cc;strokeColor=#d79b00;" parent="1" vertex="1">
          <mxGeometry x="210" y="280" width="30" height="30" as="geometry" />
        </mxCell>
        <mxCell id="qssM28EAout3t3XQj-o4-20" value="" style="ellipse;whiteSpace=wrap;html=1;aspect=fixed;labelBackgroundColor=none;rounded=0;" parent="1" vertex="1">
          <mxGeometry x="170" y="320" width="30" height="30" as="geometry" />
        </mxCell>
        <mxCell id="qssM28EAout3t3XQj-o4-21" value="+2" style="ellipse;whiteSpace=wrap;html=1;aspect=fixed;labelBackgroundColor=none;rounded=0;" parent="1" vertex="1">
          <mxGeometry x="210" y="320" width="30" height="30" as="geometry" />
        </mxCell>
        <mxCell id="qssM28EAout3t3XQj-o4-22" value="" style="ellipse;whiteSpace=wrap;html=1;aspect=fixed;labelBackgroundColor=none;rounded=0;fillStyle=solid;gradientColor=none;fillColor=default;opacity=10;" parent="1" vertex="1">
          <mxGeometry x="250" y="200" width="30" height="30" as="geometry" />
        </mxCell>
        <mxCell id="qssM28EAout3t3XQj-o4-23" value="" style="ellipse;whiteSpace=wrap;html=1;aspect=fixed;labelBackgroundColor=none;rounded=0;fillStyle=solid;gradientColor=none;fillColor=default;opacity=10;" parent="1" vertex="1">
          <mxGeometry x="290" y="200" width="30" height="30" as="geometry" />
        </mxCell>
        <mxCell id="qssM28EAout3t3XQj-o4-24" value="" style="ellipse;whiteSpace=wrap;html=1;aspect=fixed;labelBackgroundColor=none;rounded=0;" parent="1" vertex="1">
          <mxGeometry x="250" y="240" width="30" height="30" as="geometry" />
        </mxCell>
        <mxCell id="qssM28EAout3t3XQj-o4-25" value="" style="ellipse;whiteSpace=wrap;html=1;aspect=fixed;labelBackgroundColor=none;rounded=0;" parent="1" vertex="1">
          <mxGeometry x="290" y="240" width="30" height="30" as="geometry" />
        </mxCell>
        <mxCell id="qssM28EAout3t3XQj-o4-26" value="" style="ellipse;whiteSpace=wrap;html=1;aspect=fixed;labelBackgroundColor=none;rounded=0;fillStyle=solid;gradientColor=none;fillColor=default;opacity=10;" parent="1" vertex="1">
          <mxGeometry x="330" y="200" width="30" height="30" as="geometry" />
        </mxCell>
        <mxCell id="qssM28EAout3t3XQj-o4-27" value="" style="ellipse;whiteSpace=wrap;html=1;aspect=fixed;labelBackgroundColor=none;rounded=0;fillStyle=solid;gradientColor=none;fillColor=default;opacity=10;" parent="1" vertex="1">
          <mxGeometry x="370" y="200" width="30" height="30" as="geometry" />
        </mxCell>
        <mxCell id="qssM28EAout3t3XQj-o4-28" value="" style="ellipse;whiteSpace=wrap;html=1;aspect=fixed;labelBackgroundColor=none;rounded=0;" parent="1" vertex="1">
          <mxGeometry x="330" y="240" width="30" height="30" as="geometry" />
        </mxCell>
        <mxCell id="qssM28EAout3t3XQj-o4-29" value="" style="ellipse;whiteSpace=wrap;html=1;aspect=fixed;labelBackgroundColor=none;rounded=0;fillStyle=solid;gradientColor=none;fillColor=default;opacity=10;" parent="1" vertex="1">
          <mxGeometry x="370" y="240" width="30" height="30" as="geometry" />
        </mxCell>
        <mxCell id="qssM28EAout3t3XQj-o4-30" value="+3" style="ellipse;whiteSpace=wrap;html=1;aspect=fixed;labelBackgroundColor=none;rounded=0;" parent="1" vertex="1">
          <mxGeometry x="250" y="280" width="30" height="30" as="geometry" />
        </mxCell>
        <mxCell id="qssM28EAout3t3XQj-o4-31" value="+5" style="ellipse;whiteSpace=wrap;html=1;aspect=fixed;labelBackgroundColor=none;rounded=0;" parent="1" vertex="1">
          <mxGeometry x="290" y="280" width="30" height="30" as="geometry" />
        </mxCell>
        <mxCell id="qssM28EAout3t3XQj-o4-32" value="" style="ellipse;whiteSpace=wrap;html=1;aspect=fixed;labelBackgroundColor=none;rounded=0;" parent="1" vertex="1">
          <mxGeometry x="250" y="320" width="30" height="30" as="geometry" />
        </mxCell>
        <mxCell id="qssM28EAout3t3XQj-o4-33" value="" style="ellipse;whiteSpace=wrap;html=1;aspect=fixed;labelBackgroundColor=none;rounded=0;" parent="1" vertex="1">
          <mxGeometry x="290" y="320" width="30" height="30" as="geometry" />
        </mxCell>
        <mxCell id="qssM28EAout3t3XQj-o4-34" value="E" style="ellipse;whiteSpace=wrap;html=1;aspect=fixed;labelBackgroundColor=none;rounded=0;fillColor=#ffe6cc;strokeColor=#d79b00;" parent="1" vertex="1">
          <mxGeometry x="330" y="280" width="30" height="30" as="geometry" />
        </mxCell>
        <mxCell id="qssM28EAout3t3XQj-o4-35" value="" style="ellipse;whiteSpace=wrap;html=1;aspect=fixed;labelBackgroundColor=none;rounded=0;fillStyle=solid;gradientColor=none;fillColor=default;opacity=10;" parent="1" vertex="1">
          <mxGeometry x="370" y="280" width="30" height="30" as="geometry" />
        </mxCell>
        <mxCell id="qssM28EAout3t3XQj-o4-36" value="-1" style="ellipse;whiteSpace=wrap;html=1;aspect=fixed;labelBackgroundColor=none;rounded=0;" parent="1" vertex="1">
          <mxGeometry x="330" y="320" width="30" height="30" as="geometry" />
        </mxCell>
        <mxCell id="qssM28EAout3t3XQj-o4-37" value="" style="ellipse;whiteSpace=wrap;html=1;aspect=fixed;labelBackgroundColor=none;rounded=0;fillStyle=solid;gradientColor=none;fillColor=default;opacity=10;" parent="1" vertex="1">
          <mxGeometry x="370" y="320" width="30" height="30" as="geometry" />
        </mxCell>
        <mxCell id="qssM28EAout3t3XQj-o4-46" value="" style="ellipse;whiteSpace=wrap;html=1;aspect=fixed;labelBackgroundColor=none;rounded=0;fillStyle=solid;gradientColor=none;fillColor=default;opacity=10;" parent="1" vertex="1">
          <mxGeometry x="90" y="360" width="30" height="30" as="geometry" />
        </mxCell>
        <mxCell id="qssM28EAout3t3XQj-o4-47" value="B" style="ellipse;whiteSpace=wrap;html=1;aspect=fixed;labelBackgroundColor=none;rounded=0;fillColor=#ffe6cc;strokeColor=#d79b00;" parent="1" vertex="1">
          <mxGeometry x="130" y="360" width="30" height="30" as="geometry" />
        </mxCell>
        <mxCell id="qssM28EAout3t3XQj-o4-48" value="" style="ellipse;whiteSpace=wrap;html=1;aspect=fixed;labelBackgroundColor=none;rounded=0;fillStyle=solid;gradientColor=none;fillColor=default;opacity=10;" parent="1" vertex="1">
          <mxGeometry x="90" y="400" width="30" height="30" as="geometry" />
        </mxCell>
        <mxCell id="qssM28EAout3t3XQj-o4-49" value="" style="ellipse;whiteSpace=wrap;html=1;aspect=fixed;labelBackgroundColor=none;rounded=0;" parent="1" vertex="1">
          <mxGeometry x="130" y="400" width="30" height="30" as="geometry" />
        </mxCell>
        <mxCell id="qssM28EAout3t3XQj-o4-50" value="" style="ellipse;whiteSpace=wrap;html=1;aspect=fixed;labelBackgroundColor=none;rounded=0;" parent="1" vertex="1">
          <mxGeometry x="170" y="360" width="30" height="30" as="geometry" />
        </mxCell>
        <mxCell id="qssM28EAout3t3XQj-o4-52" value="-2" style="ellipse;whiteSpace=wrap;html=1;aspect=fixed;labelBackgroundColor=none;rounded=0;fillColor=#ffe6cc;strokeColor=#d79b00;" parent="1" vertex="1">
          <mxGeometry x="170" y="400" width="30" height="30" as="geometry" />
        </mxCell>
        <mxCell id="qssM28EAout3t3XQj-o4-67" value="F" style="ellipse;whiteSpace=wrap;html=1;aspect=fixed;labelBackgroundColor=none;rounded=0;" parent="1" vertex="1">
          <mxGeometry x="210" y="360" width="30" height="30" as="geometry" />
        </mxCell>
        <mxCell id="qssM28EAout3t3XQj-o4-69" value="" style="ellipse;whiteSpace=wrap;html=1;aspect=fixed;labelBackgroundColor=none;rounded=0;" parent="1" vertex="1">
          <mxGeometry x="210" y="400" width="30" height="30" as="geometry" />
        </mxCell>
        <mxCell id="qssM28EAout3t3XQj-o4-70" value="F" style="ellipse;whiteSpace=wrap;html=1;aspect=fixed;labelBackgroundColor=none;rounded=0;" parent="1" vertex="1">
          <mxGeometry x="250" y="360" width="30" height="30" as="geometry" />
        </mxCell>
        <mxCell id="qssM28EAout3t3XQj-o4-71" value="" style="ellipse;whiteSpace=wrap;html=1;aspect=fixed;labelBackgroundColor=none;rounded=0;" parent="1" vertex="1">
          <mxGeometry x="290" y="360" width="30" height="30" as="geometry" />
        </mxCell>
        <mxCell id="qssM28EAout3t3XQj-o4-72" value="F" style="ellipse;whiteSpace=wrap;html=1;aspect=fixed;labelBackgroundColor=none;rounded=0;" parent="1" vertex="1">
          <mxGeometry x="250" y="400" width="30" height="30" as="geometry" />
        </mxCell>
        <mxCell id="qssM28EAout3t3XQj-o4-73" value="" style="ellipse;whiteSpace=wrap;html=1;aspect=fixed;labelBackgroundColor=none;rounded=0;" parent="1" vertex="1">
          <mxGeometry x="290" y="400" width="30" height="30" as="geometry" />
        </mxCell>
        <mxCell id="qssM28EAout3t3XQj-o4-74" value="" style="ellipse;whiteSpace=wrap;html=1;aspect=fixed;labelBackgroundColor=none;rounded=0;" parent="1" vertex="1">
          <mxGeometry x="330" y="360" width="30" height="30" as="geometry" />
        </mxCell>
        <mxCell id="qssM28EAout3t3XQj-o4-75" value="" style="ellipse;whiteSpace=wrap;html=1;aspect=fixed;labelBackgroundColor=none;rounded=0;fillStyle=solid;gradientColor=none;fillColor=default;opacity=10;" parent="1" vertex="1">
          <mxGeometry x="370" y="360" width="30" height="30" as="geometry" />
        </mxCell>
        <mxCell id="qssM28EAout3t3XQj-o4-76" value="" style="ellipse;whiteSpace=wrap;html=1;aspect=fixed;labelBackgroundColor=none;rounded=0;" parent="1" vertex="1">
          <mxGeometry x="330" y="400" width="30" height="30" as="geometry" />
        </mxCell>
        <mxCell id="qssM28EAout3t3XQj-o4-77" value="" style="ellipse;whiteSpace=wrap;html=1;aspect=fixed;labelBackgroundColor=none;rounded=0;fillStyle=solid;gradientColor=none;fillColor=default;opacity=10;" parent="1" vertex="1">
          <mxGeometry x="370" y="400" width="30" height="30" as="geometry" />
        </mxCell>
      </root>
    </mxGraphModel>
  </diagram>
</mxfile>
